<svg width="250" height="190" viewBox="0 0 250 190" fill="none" xmlns="http://www.w3.org/2000/svg">
<g clip-path="url(#clip0)">
<path d="M234.852 68.1009C238.354 74.4311 243.444 80.3994 243.887 87.5372C244.594 99.0018 233.354 107.64 228.76 118.265C223.117 131.303 227.848 146.664 222.859 159.944C219.24 169.562 210.364 177.245 199.931 179.789C192.115 181.693 183.892 180.833 175.817 180.911C152.901 181.132 130.074 189.014 107.474 185.437C96.3132 183.67 85.7594 179.165 74.5464 177.717C61.1023 175.982 45.4324 178.079 35.8227 168.996C22.3997 156.299 32.3628 132.96 22.289 117.73C19.0453 112.826 13.8185 108.987 12.0675 103.444C10.0211 96.9617 13.3386 90.0546 17.4578 84.5321C21.577 79.0096 26.6719 73.9223 28.9029 67.4925C30.9282 61.6553 29.694 55.3146 27.1993 49.6452C23.3808 40.955 34.0084 21.0361 55.0791 22.5309C64.7415 23.2179 69.0875 12.0889 79.6835 9.00512C91.8196 5.47553 107.052 8.31284 115.992 11.2655C125.074 14.2654 136.308 15.844 141.514 8.17648C148.866 -2.65354 170.781 -4.34753 180.622 13.2375C184.219 19.6621 187.416 24.6601 195.068 24.1672C236.54 21.5029 229.647 58.6921 234.852 68.1009ZM121.835 8.67472C121.835 10.1484 121.835 12.6816 128.375 12.2672C130.38 12.1414 132.015 11.0715 132.015 9.59776C132.015 8.12404 130.385 6.92828 128.375 6.92828C126.366 6.92828 121.835 6.31991 121.835 8.67472ZM57.4208 15.8335C57.2151 15.9437 57.1097 16.1587 56.9883 16.3475C56.5664 16.9978 55.8333 17.4174 55.0843 17.7059C54.6466 17.8789 54.1772 18.0258 53.8502 18.3509C53.3386 18.8701 53.3966 19.8037 53.9767 20.26C54.4462 20.6271 55.1054 20.6638 55.712 20.6376C57.9852 20.5274 60.2162 19.6988 61.962 18.3142C64.2668 16.4944 58.6867 15.1518 57.4208 15.8335ZM51.213 19.232C50.4483 18.7338 49.4567 19.0222 48.6972 19.4103C48.5337 19.4942 48.3597 19.6096 48.3122 19.7827C48.212 20.1393 48.6708 20.3963 49.04 20.5117C49.6202 20.69 50.2478 20.8683 50.828 20.6743C51.4029 20.4855 51.9831 19.7303 51.213 19.232ZM22.2943 66.2548C21.7299 64.5346 20.3903 63.6797 18.3597 64.6604C17.1519 65.2426 16.308 66.3282 15.5854 67.4191C14.4198 69.176 13.4177 71.1899 13.6603 73.251C13.8396 74.7562 14.7099 76.1722 16.0073 77.0638C16.54 77.4257 17.1677 77.7141 17.8217 77.6932C18.539 77.6669 19.1877 77.2841 19.7468 76.854C21.0654 75.8366 22.078 74.515 23.0801 73.2091C23.597 72.5325 24.135 71.814 24.2352 70.9854C24.4462 69.218 22.8164 67.8334 22.2943 66.2548ZM234.304 119.214C233.787 119.424 233.254 119.692 232.959 120.143C232.727 120.499 232.663 120.924 232.616 121.344C232.521 122.209 232.468 123.08 232.468 123.95C232.468 124.905 232.574 125.959 233.307 126.609C234.298 127.485 235.875 127.176 237.173 126.814C237.906 126.609 238.687 126.378 239.156 125.807C239.499 125.392 239.625 124.852 239.72 124.328C240.037 122.587 240.997 119.954 239.931 119.052C238.871 118.155 236.166 118.459 234.304 119.214ZM161.06 186.565C160.796 186.812 160.548 187.079 160.385 187.394C159.952 188.264 160.401 189.439 161.329 189.817C161.798 190.005 162.326 190 162.832 189.995C167.194 189.937 171.883 189.78 175.369 187.289C175.796 186.985 176.234 186.56 176.16 186.056C176.071 185.453 175.316 185.191 174.683 185.07C170.327 184.236 164.562 183.298 161.06 186.565ZM78.2594 179.873C74.4673 179.364 68.4335 178.646 68.4335 181.698C68.4335 182.852 73.7869 183.959 74.673 184.168C77.4103 184.824 79.9789 185.799 82.6529 186.78C87.6213 188.605 91.5981 186.145 87.6635 183.392C84.4251 181.116 81.3185 180.282 78.2594 179.873Z" fill="#C8EEFB"/>
<path d="M202.922 107.75C202.922 107.75 211.735 106.947 220.09 103.549C220.353 103.439 220.512 105.227 220.512 105.227C220.512 105.227 221.741 102.841 222.168 102.641C226.688 100.523 230.833 97.5648 233.059 93.4792C233.059 93.4792 234.156 118.559 201.73 124.128L202.922 107.75Z" fill="#5084DA"/>
<path d="M213.703 136.359C213.703 136.359 224.404 141.997 245.327 142.977C245.327 142.977 231.092 155.895 198.523 151.447L199.594 136.736L213.703 136.359Z" fill="#5084DA"/>
<path d="M198.734 122.041C198.734 122.041 203.565 118.973 211.403 116.325C211.714 116.22 212.379 118.055 212.379 118.055C212.379 118.055 213.449 115.664 214.014 115.496C223.381 112.706 236.197 110.886 250 114.762C250 114.762 245.818 120.557 237.257 126.898C236.893 127.17 234.473 126.955 234.473 126.955C234.473 126.955 235.485 128.172 235.153 128.403C227.02 134.025 215.485 139.757 200.427 142.023L198.734 122.041Z" fill="#5193F4"/>
<g opacity="0.4">
<g opacity="0.4">
<path opacity="0.4" d="M250 114.756C245.965 117.347 241.719 119.608 237.4 121.695C233.08 123.793 228.639 125.639 224.14 127.328C221.893 128.182 219.599 128.901 217.326 129.667L213.871 130.695C213.296 130.862 212.722 131.041 212.141 131.203L210.39 131.639C205.749 132.887 201.007 133.726 196.255 134.402L199.779 133.679L201.54 133.322C202.126 133.191 202.706 133.039 203.286 132.903L206.783 132.074L210.248 131.119C212.563 130.506 214.837 129.751 217.126 129.063C219.388 128.277 221.667 127.543 223.892 126.672C228.391 125.041 232.811 123.195 237.168 121.207C239.346 120.216 241.503 119.183 243.645 118.108C245.796 117.053 247.911 115.931 250 114.756Z" fill="#5084DA"/>
</g>
<g opacity="0.4">
<path opacity="0.4" d="M220.733 128.203C221.624 127.375 222.495 126.53 223.36 125.686C224.214 124.836 225.063 123.982 225.876 123.095C226.698 122.219 227.468 121.302 228.223 120.368C228.961 119.424 229.662 118.448 230.332 117.426C229.91 118.564 229.346 119.665 228.666 120.683C227.985 121.7 227.215 122.66 226.387 123.562C224.71 125.35 222.843 126.966 220.733 128.203Z" fill="#5084DA"/>
</g>
<g opacity="0.4">
<path opacity="0.4" d="M207.774 132.069C208.745 131.439 209.631 130.726 210.475 129.976C211.313 129.221 212.11 128.418 212.816 127.548C213.534 126.688 214.193 125.77 214.757 124.794C215.348 123.829 215.823 122.801 216.308 121.758C216.081 122.88 215.765 124.013 215.237 125.051C214.752 126.111 214.093 127.086 213.354 127.988C212.611 128.89 211.762 129.703 210.818 130.396C209.884 131.093 208.866 131.681 207.774 132.069Z" fill="#5084DA"/>
</g>
<g opacity="0.4">
<path opacity="0.4" d="M220.733 128.203C222.416 128.272 224.056 128.293 225.691 128.177C226.508 128.135 227.321 128.041 228.138 127.92C228.956 127.815 229.757 127.627 230.591 127.48C229.863 127.899 229.072 128.24 228.249 128.45C227.431 128.681 226.582 128.812 225.738 128.87C224.889 128.917 224.04 128.906 223.196 128.796C222.352 128.696 221.519 128.518 220.733 128.203Z" fill="#5084DA"/>
</g>
<g opacity="0.4">
<path opacity="0.4" d="M208.033 132.09C209.04 132.21 210.037 132.305 211.034 132.41C212.031 132.499 213.022 132.583 214.014 132.625C215.005 132.672 215.997 132.667 216.988 132.64C217.98 132.588 218.966 132.499 219.974 132.341C219.045 132.756 218.054 133.034 217.041 133.175C216.029 133.312 215.005 133.348 213.982 133.312C211.946 133.201 209.921 132.845 208.033 132.09Z" fill="#5084DA"/>
</g>
</g>
<g opacity="0.2278">
<g opacity="0.2278">
<path opacity="0.5" d="M229.726 99.9878C228.861 102.343 227.342 104.414 225.612 106.239C223.871 108.07 221.825 109.585 219.652 110.87L217.98 111.762C217.426 112.066 216.83 112.281 216.255 112.538C215.105 113.068 213.898 113.435 212.7 113.818C212.11 114.033 211.487 114.143 210.876 114.295L209.04 114.73C207.795 114.924 206.556 115.103 205.311 115.26C206.53 114.951 207.753 114.704 208.961 114.4L210.754 113.875C211.35 113.692 211.957 113.55 212.532 113.309C213.687 112.853 214.879 112.491 215.986 111.935C216.545 111.667 217.131 111.458 217.669 111.153L219.299 110.267C221.435 109.024 223.439 107.566 225.232 105.862C225.675 105.432 226.123 105.007 226.524 104.535C226.73 104.304 226.941 104.079 227.141 103.843L227.716 103.114C228.486 102.143 229.177 101.11 229.726 99.9878Z" fill="#605ACA"/>
</g>
</g>
<path d="M238.492 144.75C237.025 145.028 235.543 145.201 234.056 145.374C232.569 145.516 231.081 145.626 229.589 145.699C226.603 145.846 223.608 145.778 220.622 145.573C219.13 145.448 217.642 145.28 216.16 145.038C214.678 144.813 213.201 144.546 211.756 144.157C208.861 143.413 206.013 142.369 203.46 140.817C204.805 141.456 206.181 142.023 207.595 142.469C209.003 142.935 210.433 143.324 211.883 143.633C214.778 144.262 217.722 144.656 220.68 144.871C223.634 145.128 226.609 145.185 229.578 145.159C232.547 145.138 235.522 145.007 238.492 144.75Z" fill="#4CA1FF"/>
<path d="M224.467 149.947C222.521 150.099 220.527 149.68 218.739 148.82C217.853 148.369 217.031 147.776 216.345 147.058C215.649 146.339 215.179 145.437 214.868 144.524C215.422 145.327 216.007 146.061 216.725 146.669C217.442 147.267 218.212 147.787 219.051 148.201C219.889 148.62 220.77 148.951 221.677 149.239C222.584 149.517 223.513 149.769 224.467 149.947Z" fill="#4CA1FF"/>
<path d="M216.667 150.409C214.731 150.142 212.88 149.302 211.319 148.075C210.554 147.446 209.879 146.691 209.367 145.836C208.845 144.986 208.581 144.005 208.481 143.046C208.85 143.948 209.262 144.792 209.826 145.537C210.396 146.271 211.034 146.948 211.767 147.535C212.495 148.122 213.281 148.636 214.103 149.114C214.926 149.58 215.775 150.026 216.667 150.409Z" fill="#4CA1FF"/>
<path d="M131.155 171.613C127.901 167.884 122.948 165.671 117.975 165.739C114.304 165.786 110.701 166.997 107.041 166.777C103.196 166.546 99.4779 164.653 97.0464 161.679C94.615 158.706 93.5021 154.704 94.0559 150.907C94.4779 148.023 95.9969 145.128 98.6235 143.837C100.053 143.135 101.709 142.962 103.296 143.103C104.763 143.234 106.171 143.628 107.495 144.22C110.533 145.563 113.175 147.923 115.285 150.53C117.199 152.9 121.577 156.388 124.536 158.643C126.271 159.959 127.521 160.846 127.521 160.846C129.615 162.76 129.726 169.169 131.155 171.613Z" fill="#52D2BC"/>
<path d="M99.0084 151.935C108.228 154.547 118.412 158.244 125.612 164.543" stroke="#00AD9F" stroke-miterlimit="10" stroke-linecap="round" stroke-linejoin="round"/>
<path d="M158.423 150.645C158.286 152.166 157.975 153.723 157.231 155.108C156.719 156.063 156.023 156.896 155.237 157.636C154.831 158.019 154.399 158.381 153.961 158.711C152.247 160.006 150.343 161.003 148.365 161.632C145.48 162.545 142.395 162.713 139.747 164.328C138.528 165.067 137.463 166.101 136.646 167.302C136.134 168.046 135.717 168.859 135.422 169.709L135.411 167.139C135.696 164.296 135.981 161.401 137.046 158.685C137.732 156.923 138.729 155.281 139.815 153.729C141.551 151.238 143.544 148.914 145.849 146.984C147.711 145.421 149.842 144.1 152.115 143.759C154.388 143.418 156.804 144.257 157.848 146.25C158.513 147.53 158.565 149.119 158.423 150.645Z" fill="#5193F4"/>
<path opacity="0.31" d="M137.01 164.747C138.629 160.935 141.429 157.573 144.847 155.339C146.978 153.949 149.309 153 151.482 151.699C153.655 150.398 155.749 148.626 156.767 146.25" stroke="#0B43A4" stroke-miterlimit="10" stroke-linecap="round" stroke-linejoin="round"/>
<path d="M133.46 167.082C137.516 163.08 143.27 161.25 148.924 160.442C153.639 159.771 158.597 159.744 163.006 161.533C164.388 162.094 165.749 162.876 166.566 164.113C167.384 165.356 167.5 167.15 166.503 168.251C165.659 169.185 164.293 169.41 163.033 169.452C158.892 169.599 154.837 168.403 150.781 167.559C143.808 166.106 136.213 165.755 129.873 168.991" fill="#52D2BC"/>
<path d="M138.518 164.979C146.909 161.46 159.035 162.592 164.325 166.232" stroke="#00AD9F" stroke-miterlimit="10" stroke-linecap="round" stroke-linejoin="round"/>
<path d="M39.2405 124.039C35.4483 122.225 33.6287 117.4 30.5116 116.361C26.6509 115.034 25.5644 119.325 19.3249 118.265C14.0823 117.374 12.4895 111.515 3.72893 113.33C1.05488 113.886 -0.72255 116.131 0.284834 118.832C1.03905 121.517 4.75213 123.216 6.96732 124.585C8.92935 125.686 10.6646 126.279 11.8302 128.324C11.8407 128.345 11.8566 128.366 11.8671 128.392C12.6477 130.055 12.3365 131.539 14.1614 132.761C18.4388 135.871 23.7711 130.931 28.6393 131.078C32.0728 131.177 31.9779 134.723 36.1023 135.751C40.1899 136.768 38.8502 133.128 47.4262 136.432C47.7321 136.553 48.0802 136.396 48.2015 136.091C48.2859 135.876 48.2332 135.635 48.0749 135.467C42.0675 129.211 44.8207 126.709 39.2405 124.039Z" fill="#4A84D8"/>
<path d="M39.2405 124.039C35.4483 122.225 33.6287 117.4 30.5116 116.361C26.6509 115.034 25.5644 119.325 19.3249 118.265C14.0823 117.374 12.4895 111.515 3.72893 113.33C1.05488 113.886 -0.72255 116.131 0.284834 118.832C1.03905 121.517 4.75213 123.216 6.96732 124.585C8.92935 125.686 10.6646 126.279 11.8302 128.324C11.8407 128.345 11.8566 128.366 11.8671 128.392C12.6477 130.055 12.3365 131.539 14.1614 132.761C18.4388 135.871 23.7711 130.931 28.6393 131.078C32.0728 131.177 31.9779 134.723 36.1023 135.751C40.1899 136.768 38.8502 133.128 47.4262 136.432C47.7321 136.553 48.0802 136.396 48.2015 136.091C48.2859 135.876 48.2332 135.635 48.0749 135.467C42.0675 129.211 44.8207 126.709 39.2405 124.039Z" fill="#00AD9F"/>
<g opacity="0.5">
<g opacity="0.5">
<path opacity="0.5" d="M44.0928 132.184C41.4082 130.868 39.7205 128.272 37.3102 126.578C36.1709 125.781 34.8471 125.151 33.4336 125.099C31.8566 125.041 30.2585 125.849 28.7078 125.319C27.5211 124.915 26.6456 123.94 25.5485 123.368C25 123.08 24.4199 122.917 23.8028 122.928C22.9747 122.943 22.1783 123.216 21.3555 123.284C18.5443 123.504 16.3344 121.176 14.2564 119.655C11.5085 117.646 8.1593 116.576 4.74686 116.618C4.55171 116.624 4.6361 117.132 4.85762 117.132C7.94306 117.09 11.0232 117.992 13.5865 119.702C15.7331 121.139 17.6952 123.389 20.385 123.761C21.0918 123.861 21.7827 123.772 22.4789 123.636C23.2437 123.489 24.019 123.337 24.7838 123.557C25.9863 123.898 26.8777 124.873 27.9431 125.476C28.5127 125.796 29.1245 126.001 29.7838 126.017C30.5644 126.038 31.3291 125.854 32.0939 125.728C32.8639 125.602 33.6287 125.566 34.3988 125.728C35.1161 125.88 35.7912 126.163 36.4241 126.525C39.288 128.162 41.0443 131.193 44.0296 132.656C44.2775 132.777 44.2669 132.268 44.0928 132.184Z" fill="#4CA1FF"/>
</g>
</g>
<path d="M76.1603 149.397C63.6814 150.708 61.6878 151.778 58.6973 150.493C54.884 148.857 50.8755 149.26 47.0359 147.692C43.1909 146.124 39.019 144.928 34.9209 145.589C33.6234 145.799 32.1888 146.323 32.0042 147.834C31.9304 148.442 32.1308 149.056 32.4842 149.549C33.3861 150.802 34.8629 151.222 36.2711 151.61L40.9863 152.905C42.5211 153.325 42.4209 155.575 40.8492 155.8C40.8386 155.8 40.8228 155.806 40.807 155.806C39.4831 155.984 38.1487 155.722 36.846 155.438C34.0137 154.814 31.1762 154.054 28.2753 154.054C24.7627 154.049 21.0443 155.307 19.3038 158.564C18.6867 159.718 18.4546 161.061 18.6762 162.346C19.288 165.949 22.674 167.15 25.6751 166.877C27.7848 166.688 29.7838 165.875 31.7774 165.157C36.6456 163.405 40.8175 165.335 45.9916 165.471C60.2901 165.849 76.1603 149.397 76.1603 149.397Z" fill="#7EE8D4"/>
<path d="M22.558 160.756C31.4451 159.75 40.3903 158.727 48.9188 156.036C51.4188 155.25 54.6414 155.029 61.6983 149.853" stroke="#00AD9F" stroke-miterlimit="10" stroke-linecap="round" stroke-linejoin="round"/>
<path d="M36.9515 109.517C37.2469 109.748 37.5581 109.937 37.8798 110.089C39.404 110.834 41.1498 110.939 42.3629 112.302C43.1751 113.157 43.6129 114.306 44.2194 115.323C44.3408 115.549 44.4832 115.764 44.6361 115.968C46.5137 118.527 48.3597 118.821 50.3323 118.779C51.1446 118.758 51.9832 118.685 52.8429 118.685C54.1614 118.685 55.5644 118.853 57.0781 119.676C58.0327 120.185 59.0296 120.961 60.0844 122.109C60.2743 122.314 60.6119 122.33 60.8808 122.162C61.1235 122.005 61.2448 121.727 61.192 121.475C60.6646 119.115 59.6308 117.562 58.3861 116.398C54.8893 113.11 49.731 112.848 49.4199 106.061C49.3566 104.608 49.6625 103.575 49.4304 102.542C49.3091 102.018 49.0507 101.493 48.5391 100.911C47.4842 99.7781 45.9652 99.2747 44.6097 98.3726C40.9441 95.7713 42.6899 91.5179 42.3682 87.4691C42.1519 84.1651 39.1614 82.0148 36.7194 80.1425C33.6657 77.9083 33.6709 73.8752 31.6087 70.8806C29.5517 67.8807 24.4304 66.6744 21.7036 70.7023C18.8081 74.7249 20.4009 79.7544 21.2289 83.8347C21.4452 84.8993 21.8249 85.8486 22.326 86.7087C23.8503 89.3572 26.4663 91.2452 28.7289 93.4847C30.1213 94.864 31.2817 96.4216 32.0939 98.1838C32.5686 99.2117 32.922 100.308 33.1382 101.477C33.1857 101.75 33.2384 102.018 33.2912 102.285C33.8186 105.122 34.441 107.64 36.9515 109.517Z" fill="#7EE8D4"/>
<g opacity="0.5">
<g opacity="0.5">
<path opacity="0.5" d="M23.9558 70.765C24.0349 72.8471 24.1245 74.9659 24.7258 76.9746C25.0053 77.9186 25.4009 78.8364 25.96 79.6546C26.4558 80.3836 27.0728 81.0181 27.7269 81.6055C29.0401 82.7803 30.5433 83.782 31.6562 85.1666C32.2469 85.8956 32.6266 86.7085 32.8587 87.6158C33.0855 88.5074 33.2701 89.4619 33.8766 90.1909C34.5148 90.9618 35.5117 91.287 36.2817 91.9006C36.9304 92.4198 37.4315 93.1016 37.8376 93.8201C38.6657 95.2938 39.1193 96.9406 39.8682 98.4511C40.2269 99.1748 40.6435 99.8723 41.1815 100.481C41.8513 101.231 42.8218 101.718 43.3387 102.6C43.8555 103.491 43.8925 104.577 43.9979 105.578C44.0982 106.559 44.2775 107.514 44.6361 108.431C46.2184 112.47 50.1477 114.783 53.8819 116.582C54.4041 116.833 54.9262 117.08 55.4536 117.321C55.6963 117.436 55.6857 116.928 55.5117 116.844C51.6931 115.055 47.4684 113.099 45.3693 109.234C44.884 108.337 44.5517 107.367 44.4041 106.355C44.2617 105.379 44.2511 104.377 43.9979 103.418C43.7501 102.474 43.2596 101.755 42.5053 101.131C41.788 100.538 41.1498 99.9563 40.6488 99.1643C38.9188 96.4319 38.6446 92.7345 35.6382 90.9356C35.1899 90.6681 34.7047 90.4269 34.3091 90.0755C33.9347 89.7398 33.6973 89.315 33.5338 88.8483C33.2174 87.9619 33.1119 87.0179 32.7005 86.1631C31.9674 84.6264 30.6541 83.5093 29.3619 82.4447C27.9378 81.2751 26.4927 80.1108 25.6488 78.4378C24.7047 76.5708 24.4779 74.4257 24.3619 72.3699C24.3355 71.8559 24.3144 71.3472 24.2933 70.8332C24.2669 70.571 23.9399 70.4136 23.9558 70.765Z" fill="#4CA1FF"/>
</g>
</g>
<path opacity="0.37" d="M52.8376 118.69C54.1562 118.69 55.5591 118.858 57.0728 119.681C57.2099 117.599 57.9114 117.164 58.3808 116.403C54.884 113.115 49.7258 112.853 49.4146 106.066C49.3513 104.613 49.6572 103.58 49.4251 102.547C48.3808 104.724 46.5137 105.169 46.6562 107.393C46.7827 109.685 49.731 111.809 50.2585 114.699C50.7015 117.085 51.5876 117.693 52.8376 118.69Z" fill="#5A4FD1"/>
<path d="M86.6614 152.9C84.3038 151.972 81.1551 151.594 79.6467 153.619C78.3808 155.313 79.0348 157.715 79.9104 159.634C80.6488 161.26 81.5876 162.907 83.1435 163.788C84.2089 164.391 85.4536 164.569 86.6667 164.716C90.058 165.115 93.4705 165.314 96.8829 165.304C100.839 165.293 105.633 166.898 108.903 169.352C104.699 161.59 94.5939 156.015 86.6614 152.9Z" fill="#5084DA"/>
<path opacity="0.31" d="M82.5211 157.95C85.5222 158.076 88.5496 158.286 91.4293 159.136C94.3724 160.001 105.701 165.172 107.474 167.37" stroke="#0B43A4" stroke-miterlimit="10" stroke-linecap="round" stroke-linejoin="round"/>
<path d="M201.846 95.168C201.772 95.5194 201.746 95.8603 201.746 96.2012C201.751 97.8165 202.405 99.3479 201.751 100.963C201.361 102.017 200.554 102.883 199.937 103.827C199.794 104.026 199.668 104.236 199.557 104.456C198.149 107.141 198.681 108.841 199.557 110.503C199.916 111.185 200.343 111.867 200.707 112.601C201.271 113.723 201.719 114.992 201.651 116.629C201.619 117.657 201.377 118.837 200.833 120.227C200.738 120.473 200.865 120.772 201.129 120.929C201.366 121.066 201.661 121.055 201.851 120.903C203.66 119.45 204.557 117.908 205.032 116.356C206.377 111.977 204.409 107.472 210.121 104.315C211.345 103.638 212.368 103.465 213.159 102.825C213.56 102.5 213.898 102.054 214.183 101.372C214.71 99.9878 214.494 98.4826 214.699 96.9459C215.38 92.7188 219.789 92.3937 223.138 90.3955C225.891 88.8011 226.472 85.345 227.046 82.4657C227.674 78.9099 231.15 77.2002 232.853 74.1688C234.562 71.1374 233.423 66.2652 228.792 65.6569C224.098 64.9017 220.438 68.3998 217.279 70.8438C216.45 71.4836 215.796 72.2073 215.269 72.9993C213.634 75.4275 213.128 78.4589 212.157 81.3381C211.566 83.1108 210.712 84.7628 209.541 86.2051C208.856 87.0494 208.064 87.8152 207.152 88.4969C206.941 88.6543 206.73 88.8116 206.519 88.9742C204.299 90.621 202.395 92.2258 201.846 95.168Z" fill="#7EE8D4"/>
<g opacity="0.5">
<g opacity="0.5">
<path opacity="0.5" d="M229.647 67.5135C227.964 68.4261 226.261 69.3544 224.826 70.6393C224.14 71.2529 223.523 71.9504 223.049 72.7371C222.6 73.4871 222.289 74.3052 222.052 75.1391C221.566 76.8383 221.355 78.653 220.559 80.2473C220.142 81.0759 219.568 81.7315 218.861 82.3294C218.223 82.8696 217.532 83.4203 217.21 84.2174C216.835 85.1352 217.009 86.1684 216.746 87.1177C216.54 87.8677 216.16 88.5494 215.712 89.1788C214.778 90.4847 213.576 91.5703 212.605 92.8447C212.141 93.4531 211.735 94.1087 211.456 94.8219C211.108 95.7135 211.102 96.7362 210.533 97.5386C210.016 98.2729 209.209 98.7554 208.46 99.2221C207.653 99.7256 206.883 100.245 206.229 100.932C203.333 103.968 202.991 108.369 203.022 112.339C203.027 112.931 203.038 113.524 203.054 114.117C203.059 114.384 203.386 114.541 203.376 114.19C203.286 110.047 203.191 105.421 205.912 101.986C206.498 101.252 207.194 100.633 207.98 100.114C208.729 99.626 209.531 99.2011 210.195 98.598C210.886 97.9687 211.208 97.2239 211.414 96.3271C211.603 95.4828 211.878 94.717 212.342 93.9776C213.18 92.6559 214.335 91.5808 215.332 90.3903C216.35 89.1683 217.115 87.8362 217.242 86.2261C217.284 85.6754 217.284 85.1038 217.489 84.5793C217.653 84.1493 217.959 83.7874 218.286 83.4727C218.903 82.8801 219.61 82.3923 220.148 81.7158C221.218 80.3574 221.588 78.6058 221.973 76.9642C222.384 75.202 222.874 73.5028 224.072 72.0868C225.301 70.634 226.957 69.6008 228.597 68.6778C229.008 68.447 229.425 68.2163 229.847 67.9908C230.005 67.8964 229.852 67.4034 229.647 67.5135Z" fill="#4CA1FF"/>
</g>
</g>
<path d="M188.217 159.907C191.809 161.921 193.275 166.761 196.255 167.973C199.947 169.52 201.282 165.393 207.321 166.83C212.389 168.036 213.565 173.868 222.252 172.656C224.905 172.284 226.788 170.202 225.976 167.501C225.417 164.826 221.888 162.928 219.815 161.449C217.969 160.248 216.308 159.555 215.306 157.479C215.295 157.458 215.285 157.431 215.274 157.41C214.615 155.732 215.021 154.3 213.312 152.994C209.33 149.675 203.798 154.169 199.045 153.718C195.696 153.398 196.018 149.937 192.046 148.673C188.112 147.419 189.188 151.064 181.018 147.283C180.723 147.147 180.375 147.278 180.237 147.566C180.142 147.771 180.174 148.012 180.322 148.185C185.786 154.673 182.927 156.938 188.217 159.907Z" fill="#4A84D8"/>
<path d="M188.217 159.907C191.809 161.921 193.275 166.761 196.255 167.973C199.947 169.52 201.282 165.393 207.321 166.83C212.389 168.036 213.565 173.868 222.252 172.656C224.905 172.284 226.788 170.202 225.976 167.501C225.417 164.826 221.888 162.928 219.815 161.449C217.969 160.248 216.308 159.555 215.306 157.479C215.295 157.458 215.285 157.431 215.274 157.41C214.615 155.732 215.021 154.3 213.312 152.994C209.33 149.675 203.798 154.169 199.045 153.718C195.696 153.398 196.018 149.937 192.046 148.673C188.112 147.419 189.188 151.064 181.018 147.283C180.723 147.147 180.375 147.278 180.237 147.566C180.142 147.771 180.174 148.012 180.322 148.185C185.786 154.673 182.927 156.938 188.217 159.907Z" fill="#00AD9F"/>
<g opacity="0.5">
<g opacity="0.5">
<path opacity="0.5" d="M184.008 151.641C186.582 153.12 188.07 155.811 190.364 157.62C191.435 158.464 192.7 159.141 194.082 159.251C195.596 159.372 197.199 158.7 198.655 159.346C199.763 159.839 200.554 160.814 201.577 161.443C202.126 161.779 202.716 161.973 203.36 161.989C204.177 162.005 204.974 161.779 205.791 161.795C208.492 161.837 210.448 164.176 212.352 165.775C214.905 167.92 218.112 169.2 221.45 169.373C221.688 169.384 221.619 168.87 221.424 168.859C218.423 168.702 215.496 167.658 213.101 165.849C211.087 164.328 209.362 162.036 206.793 161.417C206.123 161.255 205.448 161.265 204.768 161.344C203.972 161.438 203.17 161.58 202.389 161.328C201.224 160.95 200.406 159.938 199.415 159.272C198.892 158.921 198.318 158.664 197.69 158.59C196.93 158.496 196.171 158.622 195.417 158.7C194.647 158.779 193.898 158.784 193.143 158.59C192.453 158.412 191.804 158.092 191.203 157.709C188.455 155.937 186.925 152.811 184.072 151.169C183.834 151.033 183.84 151.542 184.008 151.641Z" fill="#4CA1FF"/>
</g>
</g>
<path d="M59.8893 150.121C59.8893 150.121 44.23 146.712 32.1836 147.997C31.8038 148.039 32.2679 145.678 32.2679 145.678C32.2679 145.678 29.789 148.296 29.1614 148.395C22.5369 149.449 16.0812 151.715 11.6825 156.162C11.6825 156.162 19.6941 123.431 63.5812 128.298L59.8893 150.121Z" fill="#5084DA"/>
<path d="M68.9926 151.877C68.9926 151.877 61.9778 148.746 53.2173 141.944C52.8692 141.671 54.4567 139.584 54.4567 139.584C54.4567 139.584 50.9652 140.151 50.3586 139.642C40.3165 131.24 28.8344 118.275 23.0485 100.024C23.0485 100.024 32.6635 100.428 46.1181 105.316C46.693 105.526 48.2278 108.379 48.2278 108.379C48.2278 108.379 48.8555 106.349 49.3618 106.554C61.693 111.494 76.6456 120.148 90.2901 135.284L68.9926 151.877Z" fill="#5193F4"/>
<g opacity="0.4">
<g opacity="0.4">
<path opacity="0.4" d="M23.0485 100.47C28.9399 103.066 34.615 106.139 40.1529 109.422C45.7015 112.7 51.0496 116.298 56.2658 120.074C58.8871 121.946 61.3818 123.987 63.924 125.959L67.6266 129.058C68.2384 129.577 68.866 130.086 69.4726 130.616L71.25 132.247C76.0759 136.505 80.5116 141.183 84.7679 145.987L81.3607 142.584L79.6624 140.879C79.0875 140.323 78.4863 139.788 77.9008 139.238L74.3935 135.944L70.77 132.782C68.3755 130.647 65.8491 128.67 63.3861 126.619C60.8386 124.674 58.3333 122.67 55.712 120.824C50.5643 117.001 45.2268 113.429 39.7785 110.031C37.057 108.326 34.3038 106.68 31.5137 105.085C28.7342 103.475 25.9124 101.938 23.0485 100.47Z" fill="#5084DA"/>
</g>
<g opacity="0.4">
<path opacity="0.4" d="M59.7627 123.242C58.1698 122.854 56.577 122.513 54.9895 122.162C53.4019 121.831 51.8143 121.517 50.2162 121.26C48.6234 120.987 47.02 120.803 45.4114 120.646C43.7975 120.515 42.1835 120.452 40.538 120.457C42.1361 120.09 43.7922 119.906 45.443 119.917C47.0939 119.933 48.7447 120.074 50.3692 120.336C53.6129 120.898 56.8091 121.794 59.7627 123.242Z" fill="#5084DA"/>
</g>
<g opacity="0.4">
<path opacity="0.4" d="M44.3513 112.748C43.2173 112.679 42.0886 112.637 40.9652 112.596C39.8418 112.564 38.7184 112.543 37.5949 112.564C36.4715 112.575 35.3587 112.648 34.2405 112.737C33.1224 112.847 32.0148 112.999 30.8914 113.209C31.9357 112.763 33.0433 112.433 34.172 112.239C35.3006 112.045 36.4399 111.945 37.5844 111.924C39.8682 111.903 42.1625 112.123 44.3513 112.748Z" fill="#5084DA"/>
</g>
<g opacity="0.4">
<path opacity="0.4" d="M73.6603 134.859C72.2363 134.24 70.7806 133.778 69.3091 133.385C67.8376 133.002 66.3502 132.708 64.8418 132.561C63.3386 132.394 61.8249 132.336 60.3059 132.42C58.7816 132.467 57.2732 132.698 55.7331 132.923C57.1677 132.352 58.6762 131.869 60.2373 131.696C61.7933 131.46 63.3755 131.476 64.942 131.638C66.5084 131.806 68.0485 132.158 69.52 132.698C71.0021 133.217 72.4209 133.925 73.6603 134.859Z" fill="#5084DA"/>
</g>
<g opacity="0.4">
<path opacity="0.4" d="M59.7627 123.242C58.597 121.312 57.4209 119.466 56.0865 117.725C55.4378 116.843 54.731 116.004 53.9979 115.186C53.2753 114.352 52.4789 113.597 51.693 112.774C52.7057 113.282 53.6709 113.907 54.5148 114.672C55.3797 115.417 56.1498 116.261 56.8354 117.169C57.5158 118.081 58.1329 119.041 58.6234 120.058C59.1192 121.065 59.5359 122.13 59.7627 123.242Z" fill="#5084DA"/>
</g>
<g opacity="0.4">
<path opacity="0.4" d="M73.4915 134.549C72.885 133.338 72.2574 132.152 71.6456 130.967C71.0179 129.792 70.3797 128.623 69.6994 127.485C69.0242 126.341 68.2911 125.24 67.5316 124.154C66.7458 123.084 65.9124 122.051 65 121.039C66.1445 121.768 67.1941 122.675 68.1012 123.698C69.0031 124.726 69.7996 125.843 70.5063 127.007C71.8671 129.362 72.9536 131.885 73.4915 134.549Z" fill="#5084DA"/>
</g>
</g>
<g opacity="0.5">
<g opacity="0.5">
<path opacity="0.5" d="M18.4177 149.003C20.4167 146.292 23.154 144.184 26.0654 142.474C28.9926 140.759 32.2046 139.563 35.4905 138.719L37.98 138.194C38.808 138.011 39.6572 137.953 40.4958 137.832C42.173 137.581 43.8713 137.554 45.5591 137.502C46.403 137.45 47.2468 137.533 48.0907 137.565L50.6171 137.686C52.289 137.895 53.961 138.126 55.6171 138.388C53.9293 138.336 52.2627 138.199 50.5907 138.142L48.0802 138.152C47.2468 138.168 46.4082 138.121 45.5802 138.22C43.9188 138.378 42.2468 138.404 40.6065 138.708C39.789 138.845 38.9504 138.902 38.1435 139.091L35.712 139.626C32.4947 140.434 29.3565 141.572 26.4135 143.103C25.6804 143.491 24.942 143.874 24.2458 144.33C23.8977 144.551 23.5338 144.766 23.1909 144.996L22.1783 145.72C20.8281 146.685 19.5517 147.766 18.4177 149.003Z" fill="#4CA1FF"/>
</g>
</g>
<g opacity="0.5">
<g opacity="0.5">
<path opacity="0.5" d="M45.5063 137.916C44.5939 139.364 43.7025 140.733 42.9641 142.18C42.5844 142.899 42.2732 143.643 41.9831 144.399C41.7036 145.164 41.5084 145.946 41.3133 146.79C40.9072 145.101 41.3502 143.287 42.1308 141.755C42.5422 140.99 43.0169 140.266 43.5812 139.621C44.1403 138.976 44.7732 138.378 45.5063 137.916Z" fill="#4CA1FF"/>
</g>
</g>
<path d="M140.601 148.432H114.662V166.169H140.601V148.432Z" fill="#0056EC"/>
<path opacity="0.5" d="M140.601 148.432H114.662V154.862H140.601V148.432Z" fill="#605ACA"/>
<path d="M153.956 165.891H101.308C99.6467 165.891 98.2964 167.233 98.2964 168.886C98.2964 170.538 99.6467 171.88 101.308 171.88H153.956C155.617 171.88 156.967 170.538 156.967 168.886C156.967 167.228 155.617 165.891 153.956 165.891Z" fill="#0056EC"/>
<path opacity="0.5" d="M156.967 168.885C156.967 170.537 155.617 171.875 153.956 171.875H101.308C99.6467 171.875 98.2964 170.532 98.2964 168.885C98.2964 168.634 98.3281 168.392 98.3914 168.162C98.7131 169.468 99.8998 170.433 101.308 170.433H153.956C155.364 170.433 156.551 169.468 156.872 168.162C156.941 168.387 156.967 168.634 156.967 168.885Z" fill="#605ACA"/>
<path d="M46.4768 150.902C45.4589 150.902 44.6308 150.079 44.6308 149.066V42.4811C44.6308 41.4689 45.4589 40.6455 46.4768 40.6455H208.787C209.805 40.6455 210.633 41.4689 210.633 42.4811V149.066C210.633 150.079 209.805 150.902 208.787 150.902H46.4768Z" fill="white"/>
<path d="M208.787 41.9619C209.077 41.9619 209.314 42.1979 209.314 42.4863V149.072C209.314 149.36 209.077 149.596 208.787 149.596H46.4768C46.1867 149.596 45.9494 149.36 45.9494 149.072V42.4863C45.9494 42.1979 46.1867 41.9619 46.4768 41.9619H208.787ZM208.787 39.3396H46.4768C44.731 39.3396 43.3123 40.7504 43.3123 42.4863V149.072C43.3123 150.808 44.731 152.218 46.4768 152.218H208.787C210.533 152.218 211.951 150.808 211.951 149.072V42.4863C211.951 40.7451 210.538 39.3396 208.787 39.3396Z" fill="#0056EC"/>
<path d="M211.951 148.851V138.43H43.3123V148.851C43.3123 150.818 44.9104 152.402 46.8829 152.402H208.381C210.353 152.402 211.951 150.818 211.951 148.851Z" fill="#0056EC"/>
<path d="M127.632 76.3242C134.812 76.3242 140.633 70.5362 140.633 63.3963C140.633 56.2565 134.812 50.4685 127.632 50.4685C120.452 50.4685 114.631 56.2565 114.631 63.3963C114.631 70.5362 120.452 76.3242 127.632 76.3242Z" fill="#C8EEFB"/>
<path d="M132.658 60.4435C132.658 63.2021 130.411 65.4363 127.637 65.4363C124.863 65.4363 122.616 63.2021 122.616 60.4435C122.616 57.6849 124.863 55.4507 127.637 55.4507C130.406 55.4507 132.658 57.6849 132.658 60.4435ZM135.211 81.3588V72.6319C135.211 69.3173 132.505 66.6268 129.172 66.6268H126.092C122.758 66.6268 120.053 69.3173 120.053 72.6319V81.3588C120.053 82.2766 120.802 83.0213 121.725 83.0213H133.539C134.462 83.0266 135.211 82.2819 135.211 81.3588Z" fill="#5084DA"/>
<path d="M158.734 91.0248H96.5296C93.6867 91.0248 91.3871 88.7329 91.3871 85.9113C91.3871 83.0845 93.692 80.7979 96.5296 80.7979H158.734C161.577 80.7979 163.877 83.0897 163.877 85.9113C163.877 88.7329 161.577 91.0248 158.734 91.0248Z" fill="#C8EEFB"/>
<path d="M156.577 87.2487H98.692C97.9484 87.2487 97.3471 86.6508 97.3471 85.9113C97.3471 85.1719 97.9484 84.574 98.692 84.574H156.577C157.321 84.574 157.922 85.1719 157.922 85.9113C157.917 86.6508 157.315 87.2487 156.577 87.2487Z" fill="#5084DA"/>
<path d="M158.782 109.423H96.5823C93.7395 109.423 91.4399 107.131 91.4399 104.309C91.4399 101.482 93.7448 99.1958 96.5823 99.1958H158.787C161.63 99.1958 163.929 101.488 163.929 104.309C163.929 107.131 161.625 109.423 158.782 109.423Z" fill="#C8EEFB"/>
<path d="M98.1751 105.736C97.4315 105.736 96.8302 105.138 96.8302 104.399C96.8302 103.659 97.4315 103.061 98.1751 103.061C98.9188 103.061 99.5201 103.659 99.5201 104.399C99.5148 105.138 98.9135 105.736 98.1751 105.736ZM103.507 104.399C103.507 103.659 102.906 103.061 102.162 103.061C101.419 103.061 100.818 103.659 100.818 104.399C100.818 105.138 101.419 105.736 102.162 105.736C102.906 105.736 103.507 105.138 103.507 104.399ZM107.505 104.399C107.505 103.659 106.904 103.061 106.16 103.061C105.417 103.061 104.815 103.659 104.815 104.399C104.815 105.138 105.417 105.736 106.16 105.736C106.904 105.736 107.505 105.138 107.505 104.399ZM111.498 104.399C111.498 103.659 110.897 103.061 110.153 103.061C109.409 103.061 108.808 103.659 108.808 104.399C108.808 105.138 109.409 105.736 110.153 105.736C110.897 105.736 111.498 105.138 111.498 104.399ZM115.491 104.399C115.491 103.659 114.889 103.061 114.146 103.061C113.402 103.061 112.801 103.659 112.801 104.399C112.801 105.138 113.402 105.736 114.146 105.736C114.889 105.736 115.491 105.138 115.491 104.399ZM119.488 104.399C119.488 103.659 118.887 103.061 118.143 103.061C117.4 103.061 116.799 103.659 116.799 104.399C116.799 105.138 117.4 105.736 118.143 105.736C118.887 105.736 119.488 105.138 119.488 104.399ZM123.481 104.399C123.481 103.659 122.88 103.061 122.136 103.061C121.392 103.061 120.791 103.659 120.791 104.399C120.791 105.138 121.392 105.736 122.136 105.736C122.88 105.736 123.481 105.138 123.481 104.399Z" fill="#5084DA"/>
<path d="M136.466 128.696H118.797C115.955 128.696 113.655 126.404 113.655 123.583C113.655 120.756 115.96 118.469 118.797 118.469H136.466C139.309 118.469 141.609 120.761 141.609 123.583C141.609 126.404 139.309 128.696 136.466 128.696Z" fill="#5084DA"/>
<path opacity="0.09" d="M192.848 152.119V146.271C192.848 144.346 191.282 142.789 189.346 142.789H189.04V137.371C189.04 129.405 182.521 122.927 174.515 122.927C166.503 122.927 159.989 129.405 159.989 137.371V142.789H159.684C157.748 142.789 156.181 144.346 156.181 146.271V152.119H192.848ZM164.789 137.371C164.789 132.037 169.151 127.7 174.515 127.7C179.879 127.7 184.241 132.037 184.241 137.371V142.789H164.789V137.371Z" fill="black"/>
<path opacity="0.09" d="M199.71 97.329C198.296 96.1542 196.54 95.4409 194.451 95.2574C194.446 95.0633 194.446 94.8745 194.457 94.628C195.533 94.4549 196.45 93.5214 196.988 92.2627C198.439 90.8729 199.425 89.1527 198.945 86.9867C198.919 86.8608 198.945 86.7559 198.998 86.6668C198.376 85.5549 197.226 85.0252 195.949 83.8766C191.661 80.0114 186.566 85.3818 188.497 87.5898C188.65 87.7629 188.861 88.2192 189.035 88.8065C189.03 88.8223 189.024 88.8275 189.024 88.8433C188.935 89.2576 189.014 89.9551 189.341 90.3012C189.362 90.5163 189.378 90.7365 189.378 90.9568C189.383 90.9778 189.399 90.9935 189.404 91.0198C189.467 91.3606 189.594 91.6596 189.763 91.9271C190.021 92.9602 190.643 94.0406 191.946 94.4759C192.046 94.5074 192.152 94.5441 192.263 94.5703C192.337 94.8588 192.347 95.0266 192.31 95.2678C191.044 95.4094 189.9 95.8028 188.877 96.4112C180.68 100.35 172.574 113.047 173.47 115.848C174.362 118.648 176.63 121.926 178.154 124.113L178.391 124.071C178.513 124.491 178.639 124.915 178.761 125.335C178.824 125.545 178.892 125.77 179.056 125.912C179.277 126.106 179.604 126.101 179.9 126.09C180.264 126.074 180.659 126.043 180.928 125.802C181.081 125.66 181.176 125.461 181.229 125.262C181.366 124.711 181.229 124.129 180.955 123.625L181.134 123.594C181.134 123.594 177.6 118.333 177.727 115.129C177.774 113.959 180.533 111.196 182.774 109.14C182.722 109.853 182.695 110.582 182.695 111.316L181.619 136.868C181.619 136.868 182.547 137.051 184.035 137.287L185.48 152.549H191.287L191.424 138.174C191.498 138.179 191.577 138.184 191.651 138.189C191.719 138.195 191.788 138.2 191.851 138.205C192.136 138.226 192.421 138.242 192.711 138.263C192.806 138.268 192.906 138.273 193.001 138.279C193.107 138.284 193.212 138.289 193.312 138.294L193.882 152.549H199.61L200.781 138.032C200.786 138.032 200.796 138.027 200.802 138.027C201.039 137.99 201.271 137.948 201.498 137.901C201.598 137.88 201.693 137.859 201.793 137.838C201.983 137.796 202.168 137.749 202.352 137.702C202.453 137.675 202.547 137.649 202.642 137.623C202.827 137.57 203.001 137.513 203.175 137.455C203.254 137.429 203.339 137.403 203.412 137.371C203.655 137.282 203.892 137.182 204.109 137.077L203.993 109.439C203.993 108.841 203.977 108.264 203.94 107.697C203.94 107.656 203.935 107.614 203.929 107.572C203.898 107.047 203.845 106.533 203.782 106.035C203.776 105.988 203.771 105.935 203.761 105.888C203.755 105.841 203.75 105.799 203.745 105.752C204.879 105.977 206.35 106.245 208.281 106.57C209.536 106.78 210.754 106.675 211.92 106.344V100.748C207.131 101.294 201.762 98.5614 199.71 97.329Z" fill="black"/>
<path opacity="0.3" d="M121.472 112.769C126.406 112.769 130.406 108.791 130.406 103.885C130.406 98.9779 126.406 95.0002 121.472 95.0002C116.537 95.0002 112.537 98.9779 112.537 103.885C112.537 108.791 116.537 112.769 121.472 112.769Z" fill="#94EBFF"/>
<path opacity="0.5" d="M121.472 108.704C124.148 108.704 126.319 106.547 126.319 103.885C126.319 101.223 124.148 99.0649 121.472 99.0649C118.795 99.0649 116.624 101.223 116.624 103.885C116.624 106.547 118.795 108.704 121.472 108.704Z" fill="#94EBFF"/>
<path d="M170.891 122.927C162.88 122.927 156.366 129.405 156.366 137.371V151.264H185.417V137.371C185.417 129.405 178.898 122.927 170.891 122.927ZM161.166 146.486V137.371C161.166 132.037 165.527 127.7 170.891 127.7C176.255 127.7 180.617 132.037 180.617 137.371V146.486H161.166Z" fill="#F9714E"/>
<path opacity="0.4" d="M170.891 125.781C164.494 125.781 159.293 130.957 159.293 137.313V148.406H182.489V137.313C182.489 130.957 177.284 125.781 170.891 125.781ZM180.617 146.486H161.166V137.371C161.166 132.037 165.527 127.7 170.891 127.7C176.255 127.7 180.617 132.037 180.617 137.371V146.486Z" fill="#F9714E"/>
<path d="M185.654 171.875H156.123C154.151 171.875 152.553 170.286 152.553 168.325V146.334C152.553 144.373 154.151 142.783 156.123 142.783H185.654C187.627 142.783 189.225 144.373 189.225 146.334V168.325C189.225 170.286 187.627 171.875 185.654 171.875Z" fill="#FFB255"/>
<path d="M176.218 155.318C176.218 152.391 173.834 150.016 170.886 150.016C167.938 150.016 165.554 152.391 165.554 155.318C165.554 157.363 166.725 159.136 168.428 160.022V165.755H173.333V160.022C175.053 159.136 176.218 157.363 176.218 155.318Z" fill="#F9714E"/>
<path opacity="0.4" d="M185.723 142.789H176.915C174.995 148.731 171.999 154.353 168.191 159.277C164.647 163.856 159.072 169.662 152.758 169.541C153.238 170.899 154.531 171.875 156.06 171.875H185.723C187.658 171.875 189.225 170.317 189.225 168.393V146.271C189.225 144.351 187.658 142.789 185.723 142.789Z" fill="#FFB255"/>
<path d="M174.436 122.933C174.668 123.735 174.9 124.532 175.137 125.335C175.2 125.545 175.269 125.77 175.433 125.912C175.654 126.106 175.981 126.101 176.276 126.09C176.64 126.074 177.036 126.043 177.305 125.802C177.458 125.66 177.553 125.461 177.606 125.261C177.753 124.674 177.584 124.039 177.273 123.515C176.962 122.991 176.519 122.561 176.081 122.136" fill="#FFC2D3"/>
<path d="M217.853 95.2785C218.138 94.1614 218.523 93.0706 219.003 92.0216C219.251 92.3363 219.225 92.7821 219.183 93.1807C219.425 92.5933 219.895 92.1056 220.469 91.8328C220.538 91.8014 220.617 91.7699 220.686 91.8014C220.765 91.8328 220.796 91.9272 220.818 92.0059C221.034 92.8608 220.928 93.7995 220.527 94.5862C220.127 95.3729 219.425 96.0075 218.602 96.3379" fill="#FFC2D3"/>
<path d="M194.13 169.94C196.181 170.438 197.901 171.036 198.84 171.88H190.928L191.081 170.055L194.13 169.94Z" fill="#5084DA"/>
<path d="M184.457 169.94C182.405 170.438 180.686 171.036 179.747 171.88H187.658L187.505 170.055L184.457 169.94Z" fill="#5084DA"/>
<path d="M198.291 124.108L194.562 170.26C194.562 170.26 193.26 170.574 192.811 170.574C192.59 170.574 192.168 170.501 191.788 170.433C191.356 170.344 190.981 170.26 190.981 170.26L189.583 135.373H187.832L187.495 170.26C187.495 170.26 186.561 170.538 185.591 170.538C184.647 170.538 183.529 170.26 183.529 170.26L179.051 122.927L198.291 124.108Z" fill="#2E2C84"/>
<g opacity="0.3">
<path opacity="0.5" d="M191.139 123.667L184.573 123.263C184.494 131.765 185.781 162.141 185.912 170.522C186.756 170.475 187.495 170.255 187.495 170.255L187.832 135.368H189.583L190.981 170.255C190.981 170.255 191.356 170.344 191.788 170.428C191.915 170.449 192.046 170.475 192.173 170.496C192.168 160.998 191.303 127.574 191.139 123.667Z" fill="#2E2C84"/>
</g>
<path d="M185.749 90.9568C185.754 90.9778 185.77 90.9935 185.775 91.0198C186.06 92.5459 187.516 93.3274 189.135 93.7731C190.454 94.135 190.754 94.2924 191.814 93.5319C194.008 91.9585 195.955 89.8659 195.322 86.9867C195.295 86.8608 195.322 86.7559 195.375 86.6668C194.752 85.5549 193.602 85.0252 192.326 83.8766C188.038 80.0114 182.943 85.3818 184.873 87.5898C185.179 87.9517 185.754 89.5146 185.749 90.9568Z" fill="#001F64"/>
<path d="M200.375 109.439C200.375 100.665 196.725 95.2102 189.731 95.2102C182.737 95.2102 179.066 102.547 179.066 111.321L177.991 136.873C177.991 136.873 194.293 140.088 200.491 137.078L200.375 109.439Z" fill="#8FC2FF"/>
<path opacity="0.3" d="M200.375 109.439C200.375 106.984 200.09 104.792 199.525 102.904C198.903 112.449 198.064 137.869 183.771 137.77C189.082 138.43 196.688 138.929 200.491 137.083L200.375 109.439Z" fill="#8FC2FF"/>
<path d="M193.323 89.9288C193.059 88.2033 191.514 86.4726 189.626 87.3695C188.412 87.9464 187.157 88.0093 186.171 87.4848C186.139 87.8152 186.102 88.303 186.065 88.8117C185.854 88.4289 185.506 88.3712 185.401 88.8484C185.29 89.3572 185.427 90.3064 185.981 90.4847C185.981 90.5739 185.981 90.663 185.981 90.7365C186.007 92.0266 186.535 94.0825 188.645 94.5703C188.761 95.0265 188.718 95.1734 188.586 95.7817C188.703 96.1856 190.343 96.4478 190.881 95.9706C190.833 95.4094 190.818 95.1419 190.839 94.6279C192.083 94.4286 193.122 93.2067 193.592 91.6385C195.469 90.5949 194.124 88.6858 193.323 89.9288Z" fill="#FFC2D3"/>
<path opacity="0.3" d="M193.323 89.9287C193.217 89.2469 192.911 88.5704 192.468 88.0459C192.521 91.0458 191.234 93.8359 188.323 94.481C188.423 94.5124 188.529 94.5492 188.639 94.5754C188.755 95.0317 188.713 95.1785 188.581 95.7869C188.697 96.1907 190.338 96.4529 190.876 95.9757C190.828 95.4145 190.812 95.147 190.833 94.6331C192.078 94.4338 193.117 93.2118 193.587 91.6437C195.469 90.5948 194.125 88.6857 193.323 89.9287Z" fill="#FFC2D3"/>
<path d="M185.253 96.4111C177.057 100.35 168.95 113.047 169.847 115.847C170.738 118.648 173.006 121.926 174.531 124.113L177.511 123.594C177.511 123.594 173.977 118.333 174.103 115.129C174.183 113.152 181.999 106.638 181.999 106.638L185.253 96.4111Z" fill="#8FC2FF"/>
<path d="M195.353 96.857C196.635 97.7748 207.347 104.157 213.238 98.5196C217.495 94.4498 217.922 93.6631 217.922 93.6631L219.383 96.2329C219.383 96.2329 212.727 107.913 204.673 106.565C196.619 105.212 196.419 104.797 196.419 104.797L195.353 96.857Z" fill="#8FC2FF"/>
<path opacity="0.09" d="M62.9589 146.843C59.8945 147.724 57.2996 149.717 55.6382 152.344H77.3945C75.7331 149.717 73.1382 147.724 70.0739 146.843V93.8357H62.9589V94.7011H55.3587V101.084H62.9589V102.605H55.3587V108.987H62.9589V146.843Z" fill="black"/>
<path d="M60.0201 101.084H69.134V94.7019H60.0201V101.084Z" fill="#FFB255"/>
<path d="M60.0201 108.985H69.134V102.602H60.0201V108.985Z" fill="#FFB255"/>
<path opacity="0.5" d="M66.8067 101.084H69.1326V94.7016H66.8067V101.084Z" fill="#FFC87C"/>
<path opacity="0.5" d="M66.8067 108.985H69.1326V102.602H66.8067V108.985Z" fill="#FFC87C"/>
<path d="M67.6189 149.296H74.7339V93.8397H67.6189V149.296Z" fill="#FFB255"/>
<path opacity="0.5" d="M71.0654 151.201H71.287C71.5243 151.201 71.7194 151.007 71.7194 150.771V96.18C71.7194 95.944 71.5243 95.75 71.287 95.75H71.0654C70.8281 95.75 70.6329 95.944 70.6329 96.18V150.771C70.6329 151.012 70.8228 151.201 71.0654 151.201Z" fill="#FFC87C"/>
<path d="M58.3334 159.11C58.3334 152.071 64.0929 146.339 71.1709 146.339C78.249 146.339 84.0137 152.066 84.0137 159.11C84.0137 166.148 78.2542 171.875 71.1709 171.875C64.0929 171.875 58.3334 166.148 58.3334 159.11ZM64.9578 159.11C64.9578 162.519 67.7479 165.293 71.1762 165.293C74.6045 165.293 77.3945 162.519 77.3945 159.11C77.3945 155.701 74.6045 152.926 71.1762 152.926C67.7479 152.926 64.9578 155.701 64.9578 159.11Z" fill="#FFB255"/>
<path opacity="0.5" d="M64.3513 159.109C64.3513 162.849 67.4104 165.896 71.1762 165.896C74.9367 165.896 78.0011 162.854 78.0011 159.109C78.0011 155.37 74.942 152.323 71.1762 152.323C67.4104 152.323 64.3513 155.365 64.3513 159.109ZM64.9578 159.109C64.9578 155.7 67.7479 152.926 71.1762 152.926C74.6045 152.926 77.3945 155.7 77.3945 159.109C77.3945 162.518 74.6045 165.293 71.1762 165.293C67.7479 165.293 64.9578 162.518 64.9578 159.109Z" fill="#FFC87C"/>
<path opacity="0.09" d="M117.869 105.736C115.617 107.718 107.5 116.172 106.013 111.573C104.837 107.928 102.363 102.919 100.918 101.236C99.9631 100.15 98.7447 99.4369 97.4051 99.096V98.5138C98.8133 98.5086 101.013 98.2359 101.013 93.1906C101.013 91.6644 100.865 90.6627 100.601 90.0019C101.023 89.5823 100.992 88.7537 100.696 88.2659C100.301 87.6209 99.2669 87.0597 98.5812 86.7555C96.9515 86.037 94.826 85.7066 93.2648 86.7083C92.7163 85.9636 91.8355 85.2923 91.3028 85.0038C90.6382 84.642 89.9156 84.3325 89.1561 84.3168C87.653 84.2853 86.3502 85.4339 85.6593 86.7555C85.095 87.8306 84.8312 89.0789 85.0633 90.2694C85.2954 91.4546 86.0601 92.5612 87.1625 93.0752C87.4842 93.2273 87.8481 93.327 88.2015 93.2797C88.6709 93.2168 89.0665 92.9021 89.3987 92.5612C90.2004 91.7326 90.3376 90.7414 90.923 89.8446C91.0127 89.7082 91.1287 89.6138 91.25 89.5404C91.076 90.1225 90.981 90.7309 90.9758 91.3393C90.9599 93.0805 91.577 94.7692 92.384 96.3163C92.6002 96.7254 92.8428 97.1397 93.2226 97.4072C93.5918 97.659 94.5359 97.9055 94.9262 97.659L94.7627 98.8967C93.6551 98.9911 92.5317 99.311 91.461 99.8564V99.8512C85.3587 101.246 80.7542 116.146 72.5949 115.155V115.176C71.6034 114.903 70.5116 114.824 70.4536 115.789C70.3428 117.683 71.5243 117.924 72.5949 117.767V117.809C76.0127 117.809 80.5433 116.828 84.5201 112.454C82.326 124.758 83.2015 140.874 83.2015 140.874C83.7922 140.958 84.3777 141.037 84.9578 141.105L85.9599 152.381H91.1551L91.1656 141.624C92.2152 141.666 93.2542 141.687 94.288 141.682L94.4093 152.381H100.438L101.603 141.157C102.669 141.011 103.729 140.827 104.773 140.612C104.557 133.846 104.531 124.999 104.077 117.337C104.399 117.635 104.757 117.866 105.195 117.971C105.902 118.144 108.956 121.642 111.15 118.983C113.376 116.288 118.027 110.718 119.731 107.844C119.367 106.889 118.381 106.611 117.869 105.736Z" fill="black"/>
<path d="M98.0907 97.1921L97.7479 99.8039L100.506 100.108V97.3495L98.0907 97.1921Z" fill="#F9ACC8"/>
<path opacity="0.1" d="M76.8038 116.293C76.8038 116.293 73.1487 114.499 73.0432 116.293C72.8428 119.686 76.8038 117.772 76.8038 117.772V116.293Z" fill="black"/>
<path d="M77.3207 115.779C77.3207 115.779 73.6656 113.985 73.5601 115.779C73.3597 119.172 77.3207 117.258 77.3207 117.258V115.779Z" fill="#FFC2D3"/>
<path d="M95.596 93.1853C95.596 95.5611 98.0591 98.5086 100.448 98.5086C101.851 98.5086 104.119 98.2988 104.119 93.1853C104.119 87.8044 102.305 88.89 99.9209 88.89C97.5317 88.89 95.596 90.8148 95.596 93.1853Z" fill="#FFC2D3"/>
<path opacity="0.3" d="M99.23 95.1835C99.2352 93.1853 99.4937 90.8148 100.237 88.8848C100.132 88.89 100.026 88.89 99.9209 88.89C97.5316 88.89 95.6013 90.8148 95.6013 93.1853C95.6013 95.5139 97.9747 98.3932 100.316 98.5033C99.5464 97.6275 99.2247 96.5366 99.23 95.1835Z" fill="#FFC2D3"/>
<path d="M103.207 90.3112C102.827 90.3689 102.416 90.1853 102.057 90.3322C101.482 90.5629 101.445 91.4335 100.912 91.7534C100.253 92.152 99.2563 91.4597 98.6762 91.9737C98.3333 92.2779 98.3755 92.8076 98.4125 93.2639C98.5074 94.4649 98.3703 95.6816 98.0169 96.8302C97.9325 97.0977 98.2912 97.5749 98.0802 97.7585C97.7268 98.0626 96.7089 97.7952 96.3291 97.5329C95.9494 97.2655 95.7068 96.8459 95.4905 96.4316C94.6836 94.874 94.0665 93.1642 94.0823 91.4073C94.0981 89.6504 94.8207 87.8357 96.2447 86.8183C97.8165 85.696 100.016 86.0369 101.688 86.7816C102.373 87.0858 103.412 87.6522 103.803 88.3078C104.188 88.9424 104.13 90.1748 103.207 90.3112Z" fill="#FFB255"/>
<path opacity="0.5" d="M102.748 87.343C102.184 87.8465 101.619 88.7486 101.192 89.0423C100.607 89.4513 99.9051 89.53 99.2352 89.7345C96.1603 90.6733 95.9494 95.3619 97.289 97.8636C97.6055 97.9108 97.9114 97.8951 98.0749 97.7535C98.2859 97.5699 97.9325 97.0926 98.0116 96.8252C98.365 95.6766 98.5021 94.4599 98.4072 93.2589C98.3703 92.8026 98.3333 92.2729 98.6709 91.9687C99.2511 91.4548 100.243 92.147 100.907 91.7484C101.435 91.4285 101.477 90.5579 102.052 90.3272C102.41 90.1856 102.822 90.3639 103.201 90.3062C104.124 90.1698 104.188 88.9374 103.797 88.2975C103.592 87.9461 103.186 87.621 102.748 87.343Z" fill="#FFC87C"/>
<path d="M94.404 85.0091C93.7395 84.6419 93.0169 84.3273 92.2574 84.3168C90.7542 84.2853 89.4515 85.4444 88.7606 86.7817C88.1962 87.8674 87.9325 89.1313 88.1646 90.3323C88.3966 91.5333 89.1614 92.6504 90.2637 93.1696C90.5855 93.3217 90.9494 93.4214 91.3028 93.3742C91.7722 93.3112 92.1677 92.9913 92.5 92.6504C93.3017 91.8113 93.4388 90.8148 94.0243 89.9075C94.499 89.1733 95.5433 89.4774 96.2448 88.9949C98.0169 87.773 95.4958 85.6069 94.404 85.0091Z" fill="#FFB255"/>
<path opacity="0.5" d="M95.2057 88.2397C94.884 88.0771 94.6308 87.7781 94.3144 87.6156C93.8608 87.1226 91.5243 86.8656 91.039 90.0962C90.8914 91.0612 90.1424 92.0629 89.3777 92.5402C89.6414 92.7867 89.9367 93.0017 90.269 93.1591C90.5907 93.3111 90.9547 93.4108 91.308 93.3636C91.7774 93.3007 92.173 92.9807 92.5053 92.6398C93.307 91.8007 93.4441 90.8042 94.0295 89.8969C94.5042 89.1627 95.5485 89.4669 96.25 88.9844C96.5032 88.8113 96.6561 88.6173 96.7511 88.418C96.2869 88.5753 95.7964 88.5438 95.2057 88.2397Z" fill="#FFC87C"/>
<path d="M93.6656 169.939C95.7173 170.438 97.4367 171.036 98.3755 171.88H90.4641L90.6171 170.055L93.6656 169.939Z" fill="#F9714E"/>
<path d="M100.754 169.939C102.806 170.438 104.525 171.036 105.464 171.88H97.5528L97.7057 170.055L100.754 169.939Z" fill="#F9714E"/>
<path opacity="0.1" d="M121.266 103.974C121.224 103.953 121.15 103.911 121.102 103.9C120.807 103.821 120.533 104.026 120.285 104.204C119.852 104.524 119.04 105.18 118.681 105.578C118.681 105.578 118.681 105.578 118.687 105.578C118.571 105.683 118.465 105.793 118.381 105.919C118.107 106.318 118.027 106.874 118.286 107.283C118.486 107.603 118.855 107.839 119.23 107.834C119.778 107.828 120.522 107.54 120.891 107.11C121.261 106.68 121.229 106.203 120.965 105.71C120.786 105.374 120.527 105.19 120.237 105.112C120.57 104.907 120.891 104.682 121.181 104.419C121.25 104.356 121.319 104.293 121.35 104.204C121.366 104.126 121.345 104.016 121.266 103.974Z" fill="black"/>
<path d="M121.076 105.112C121.345 105.61 121.371 106.087 121.002 106.512C120.633 106.942 119.889 107.23 119.341 107.236C118.961 107.236 118.597 107 118.397 106.685C118.138 106.276 118.217 105.72 118.492 105.321C119.066 104.487 120.491 104.026 121.076 105.112Z" fill="#FFC2D3"/>
<path d="M120.142 104.645C120.554 104.419 120.939 104.141 121.287 103.827C121.355 103.764 121.424 103.701 121.456 103.612C121.487 103.528 121.461 103.412 121.382 103.37C121.34 103.349 121.266 103.307 121.218 103.297C120.923 103.218 120.649 103.423 120.401 103.601C119.968 103.921 119.156 104.577 118.797 104.975C119.082 105.064 119.884 104.786 120.142 104.645Z" fill="#FFC2D3"/>
<path d="M110.074 111.866C113.006 109.926 115.332 107.844 117.985 105.5C118.154 105.353 118.412 105.368 118.56 105.542C119.045 106.118 119.842 106.973 119.757 107.335C119.71 107.534 119.568 107.697 119.43 107.849C116.951 110.582 114.467 113.314 111.988 116.046C111.498 116.587 111.002 117.132 110.385 117.52C109.768 117.908 109.008 118.128 108.302 117.955C107.11 117.662 106.44 116.44 105.791 115.401C102.584 110.283 103.112 108.431 103.507 106.858C103.782 105.762 104.124 104.681 104.325 103.564C104.388 103.213 103.539 101.257 104.024 101.23C105.469 102.914 107.642 108.033 109.119 111.568C109.272 111.945 109.731 112.092 110.074 111.866Z" fill="#F9714E"/>
<path d="M86.9251 128.23L90.654 170.286C90.654 170.286 91.9568 170.574 92.4051 170.574C92.6266 170.574 93.0485 170.506 93.4283 170.443C93.8608 170.364 94.2352 170.286 94.2352 170.286L94.2722 138.493H97.3576L97.7215 170.286C97.7215 170.286 98.6551 170.538 99.6255 170.538C100.57 170.538 101.688 170.286 101.688 170.286L106.166 127.155L86.9251 128.23Z" fill="#4B48B5"/>
<path d="M96.519 131.381C96.5401 132.808 96.4399 134.093 96.9409 135.383C97.3312 136.395 98.2173 137.051 99.4831 137.03C101.329 136.993 102.611 135.991 102.616 134.135C102.616 133.894 102.737 131.381 102.853 131.376C102.853 131.381 96.519 131.381 96.519 131.381Z" fill="#568EDB"/>
<path d="M87.7584 131.387C87.7795 132.813 87.7162 134.098 88.0696 135.394C88.3439 136.406 88.9662 137.072 89.847 137.051C91.134 137.025 91.8513 135.598 92.0148 134.172C92.0411 133.936 92.0833 131.418 92.1677 131.413C92.173 131.413 87.7584 131.387 87.7584 131.387Z" fill="#568EDB"/>
<path d="M94.2774 138.493C94.2827 138.493 94.288 138.493 94.2933 138.493C94.3355 138.488 94.3618 138.446 94.3566 138.404C93.8608 135.546 94.2036 130.076 94.2036 130.023C94.2036 130.002 94.1983 129.981 94.1825 129.965C94.1667 129.95 94.1456 129.944 94.1245 129.944C94.077 129.944 89.1456 130.175 87.0781 129.656C87.0412 129.64 86.9937 129.672 86.9831 129.714C86.9726 129.756 86.999 129.798 87.0411 129.808C88.9768 130.296 93.3755 130.133 94.0454 130.107C94.0032 130.815 93.7395 135.761 94.2036 138.441C94.2036 138.467 94.2405 138.493 94.2774 138.493Z" fill="#5E9CE4"/>
<path d="M94.8945 138.493H94.8998C94.942 138.488 94.9736 138.451 94.9684 138.409C94.673 135.069 94.6414 132.431 94.8576 130.123C97.8007 130.097 101.371 129.714 105.469 128.98C105.512 128.974 105.538 128.932 105.533 128.891C105.527 128.849 105.491 128.822 105.443 128.828C101.319 129.562 97.7321 129.945 94.789 129.966C94.7468 129.966 94.7152 129.997 94.7152 130.034C94.4884 132.368 94.5201 135.032 94.8154 138.415C94.8207 138.462 94.8523 138.493 94.8945 138.493Z" fill="#5E9CE4"/>
<g opacity="0.16">
<path opacity="0.16" d="M93.4335 170.448C93.866 170.37 94.2405 170.291 94.2405 170.291L94.2774 138.499H94.5359C94.4726 138.399 94.3882 138.367 94.2774 138.42C93.6709 138.693 93.3861 139.107 93.0116 139.6C92.7162 139.998 92.5422 140.486 92.5316 140.979C92.2838 150.776 92.8586 158.234 93.4335 170.448Z" fill="#4E84D9"/>
</g>
<path d="M101.371 169.405C101.329 169.399 101.297 169.363 101.303 169.321L101.366 168.691C101.371 168.649 101.408 168.613 101.45 168.623C101.493 168.628 101.524 168.665 101.519 168.707L101.456 169.337C101.45 169.378 101.419 169.405 101.377 169.405H101.371ZM101.561 167.553C101.519 167.548 101.487 167.511 101.493 167.469L101.619 166.247C101.624 166.205 101.661 166.169 101.704 166.179C101.746 166.185 101.777 166.221 101.772 166.263L101.646 167.485C101.64 167.527 101.609 167.553 101.566 167.553H101.561ZM101.809 165.109C101.767 165.104 101.735 165.067 101.741 165.025L101.867 163.803C101.872 163.762 101.915 163.725 101.951 163.735C101.994 163.741 102.025 163.777 102.02 163.819L101.893 165.041C101.888 165.083 101.857 165.109 101.814 165.109C101.814 165.109 101.814 165.109 101.809 165.109ZM102.062 162.665C102.02 162.66 101.988 162.623 101.994 162.582L102.12 161.36C102.126 161.318 102.168 161.281 102.205 161.291C102.247 161.297 102.278 161.333 102.273 161.375L102.147 162.597C102.141 162.639 102.11 162.665 102.068 162.665H102.062ZM102.315 160.221C102.273 160.216 102.242 160.179 102.247 160.138L102.373 158.916C102.379 158.874 102.416 158.837 102.458 158.847C102.5 158.853 102.532 158.889 102.526 158.931L102.4 160.153C102.395 160.195 102.363 160.221 102.321 160.221H102.315ZM102.563 157.777C102.521 157.772 102.489 157.736 102.495 157.694L102.621 156.472C102.627 156.43 102.664 156.388 102.706 156.403C102.748 156.409 102.78 156.445 102.774 156.487L102.648 157.709C102.642 157.751 102.611 157.777 102.569 157.777C102.569 157.777 102.569 157.777 102.563 157.777ZM102.816 155.334C102.774 155.328 102.743 155.292 102.748 155.25L102.874 154.028C102.88 153.986 102.922 153.949 102.959 153.959C103.001 153.965 103.033 154.001 103.027 154.043L102.901 155.265C102.896 155.307 102.864 155.334 102.822 155.334C102.822 155.339 102.816 155.339 102.816 155.334ZM103.064 152.895C103.022 152.89 102.991 152.853 102.996 152.811L103.122 151.589C103.128 151.547 103.165 151.505 103.207 151.521C103.249 151.526 103.281 151.563 103.275 151.605L103.149 152.827C103.143 152.869 103.112 152.895 103.07 152.895C103.07 152.895 103.07 152.895 103.064 152.895ZM103.318 150.451C103.275 150.446 103.244 150.409 103.249 150.367L103.376 149.145C103.381 149.103 103.418 149.066 103.46 149.077C103.502 149.082 103.534 149.119 103.528 149.161L103.402 150.383C103.397 150.425 103.365 150.451 103.323 150.451H103.318ZM103.571 148.007C103.528 148.002 103.497 147.965 103.502 147.923L103.629 146.701C103.634 146.659 103.666 146.633 103.708 146.633H103.713C103.755 146.638 103.787 146.675 103.782 146.717L103.655 147.939C103.65 147.981 103.618 148.007 103.576 148.007H103.571ZM103.819 145.563C103.776 145.558 103.745 145.521 103.75 145.479L103.877 144.257C103.882 144.215 103.924 144.178 103.961 144.189C104.003 144.194 104.035 144.231 104.03 144.273L103.903 145.495C103.898 145.537 103.866 145.563 103.824 145.563C103.824 145.563 103.824 145.563 103.819 145.563ZM104.072 143.119C104.03 143.114 103.998 143.077 104.003 143.035L104.13 141.813C104.135 141.771 104.172 141.734 104.214 141.745C104.256 141.75 104.288 141.787 104.283 141.829L104.156 143.051C104.151 143.093 104.119 143.119 104.077 143.119H104.072ZM104.32 140.68C104.277 140.675 104.246 140.638 104.251 140.596L104.378 139.374C104.383 139.332 104.42 139.296 104.462 139.306C104.504 139.311 104.536 139.348 104.531 139.39L104.404 140.612C104.399 140.654 104.367 140.68 104.325 140.68C104.325 140.68 104.325 140.68 104.32 140.68ZM104.573 138.236C104.531 138.231 104.499 138.194 104.504 138.152L104.631 136.93C104.636 136.888 104.678 136.852 104.715 136.862C104.757 136.867 104.789 136.904 104.784 136.946L104.657 138.168C104.652 138.21 104.62 138.236 104.578 138.236H104.573ZM104.826 135.792C104.784 135.787 104.752 135.75 104.757 135.708L104.884 134.486C104.889 134.444 104.931 134.402 104.968 134.418C105.011 134.423 105.042 134.46 105.037 134.502L104.91 135.724C104.905 135.766 104.873 135.792 104.831 135.792H104.826ZM105.074 133.348C105.032 133.343 105 133.306 105.005 133.264L105.132 132.042C105.137 132 105.174 131.964 105.216 131.974C105.258 131.979 105.29 132.016 105.285 132.058L105.158 133.28C105.153 133.322 105.121 133.348 105.079 133.348C105.079 133.348 105.079 133.348 105.074 133.348ZM105.327 130.904C105.285 130.899 105.253 130.862 105.258 130.82L105.385 129.598C105.39 129.556 105.427 129.515 105.469 129.53C105.512 129.535 105.543 129.572 105.538 129.614L105.411 130.836C105.406 130.878 105.374 130.904 105.332 130.904H105.327Z" fill="#5E9CE4"/>
<path d="M94.5675 99.8406C88.4652 101.236 83.8608 116.135 75.7015 115.144V117.793C79.52 117.793 84.7363 116.581 89.0137 110.749C95.1952 102.327 94.5675 99.8406 94.5675 99.8406Z" fill="#F9714E"/>
<path opacity="0.3" d="M94.5675 99.8406C88.4652 101.236 83.8608 116.135 75.7015 115.144V117.793C79.52 117.793 84.7363 116.581 89.0137 110.749C95.1952 102.327 94.5675 99.8406 94.5675 99.8406Z" fill="#F9714E"/>
<path d="M104.019 101.236C107.764 105.505 107.453 127.154 107.88 140.601C101.129 142.012 93.8871 141.949 86.3028 140.864C86.3028 140.864 85.1213 119.198 88.9188 106.926C91.5032 98.5977 100.069 96.7306 104.019 101.236Z" fill="#F9714E"/>
<path opacity="0.3" d="M91.4715 129.787C90.0686 125.203 89.4409 120.499 89.4515 115.711C89.462 111.688 89.5623 107.325 90.6224 103.354C89.9262 104.372 89.3407 105.557 88.9188 106.921C85.1213 119.193 86.3028 140.858 86.3028 140.858C90.1371 141.409 93.8819 141.697 97.5211 141.661C94.7732 138.199 92.8006 134.124 91.4715 129.787Z" fill="#F9714E"/>
<path d="M31.8513 94.4756C32.3998 94.4442 36.1551 91.6803 37.6055 90.7468C38.0116 90.4845 38.4283 90.2118 38.7078 89.8185C38.9927 89.4304 39.1245 88.8902 38.9188 88.4549C38.6604 87.9147 38.2384 87.3745 37.1625 87.3745C35.2901 87.3798 34.6414 87.9881 33.7342 88.9269C30.7226 92.0212 31.8513 94.4756 31.8513 94.4756Z" fill="#00AD9F"/>
<path d="M48.6867 105.631C50.3218 106.36 52.0675 107.089 53.845 106.863C54.5359 106.774 55.2848 106.465 55.5169 105.809C55.7121 105.253 55.4431 104.613 55 104.22C54.557 103.827 53.9715 103.638 53.3914 103.496C51.2131 102.967 48.1593 103.26 46.0074 103.869C46.0074 103.874 47.711 105.19 48.6867 105.631Z" fill="#00AD9F"/>
<path d="M59.4568 81.6163C58.7289 81.16 57.922 80.5464 57.922 79.6863C57.922 78.8261 58.8239 78.1706 59.6889 78.1653C60.5538 78.1601 61.3555 78.6321 62.0043 79.1985C64.7574 81.6005 64.4146 84.3382 64.4146 84.3382C64.4146 84.3382 60.269 82.125 59.4568 81.6163Z" fill="#00AD9F"/>
<path d="M61.6245 74.2895C60.9863 74.0168 60.3218 73.6864 59.9473 73.1042C59.7627 72.821 59.6625 72.4592 59.7733 72.1445C59.9631 71.6148 60.2954 71.1323 61.6456 71.3788C65.9178 72.1497 66.846 75.0552 66.846 75.0552C66.846 75.0552 62.7585 74.7773 61.6245 74.2895Z" fill="#00AD9F"/>
<path d="M74.1351 80.7245C75.8492 80.5777 77.6161 79.7281 78.6973 78.4012C79.1034 77.8977 79.4779 77.347 79.615 76.7124C79.7521 76.0831 79.6045 75.3593 79.114 74.9345C78.5127 74.4206 77.5633 74.5045 76.904 74.9345C76.2448 75.3698 75.8176 76.0726 75.4747 76.7859C75.0159 77.7299 74.1351 80.7245 74.1351 80.7245Z" fill="#00AD9F"/>
<path d="M43.5496 142.825C39.404 139.191 35.2532 135.556 31.1076 131.917C28.8977 129.981 26.6403 127.983 25.2426 125.408C22.231 119.865 23.9663 112.664 28.0327 107.834C32.0992 103.003 38.0486 100.15 44.0296 98.0734C50.0106 95.9966 56.2342 94.5386 61.9357 91.7957C65.5116 90.0755 69.1034 87.5109 70.0844 83.6823C70.6751 81.38 70.1794 78.8259 68.7711 76.9064C67.3629 74.9869 65.0633 73.7387 62.6794 73.6023" stroke="#086356" stroke-miterlimit="10" stroke-linecap="round" stroke-linejoin="round"/>
<path d="M77.0359 76.7703C75.9019 80.2317 71.4874 82.3347 69.4726 85.3346" stroke="#086356" stroke-miterlimit="10" stroke-linecap="round" stroke-linejoin="round"/>
<path d="M61.1867 80.7507C62.057 81.6633 63.096 82.4185 63.8555 83.4255C65.4589 85.5495 65.5908 89.0004 63.2226 91.1454" stroke="#086356" stroke-miterlimit="10" stroke-linecap="round" stroke-linejoin="round"/>
<path d="M38.8503 100.119C42.5106 102.925 47.3207 104.792 51.9357 104.97" stroke="#086356" stroke-miterlimit="10" stroke-linecap="round" stroke-linejoin="round"/>
<path d="M30.4747 105.227C28.7922 100.287 30.6277 94.371 34.8154 91.2295" stroke="#086356" stroke-miterlimit="10" stroke-linecap="round" stroke-linejoin="round"/>
<path d="M175.48 37.3677C175.28 36.7541 175.29 36.0041 175.744 35.5478C176.102 35.186 176.704 35.0234 177.173 35.2279C180.802 36.817 180.406 42.4654 180.406 42.4654C180.406 42.4654 176.967 41.9724 175.48 37.3677Z" fill="#00AD9F"/>
<path d="M175.39 47.9409C173.043 52.1732 181.382 51.848 184.393 49.3569C184.393 49.3569 177.41 44.3011 175.39 47.9409Z" fill="#00AD9F"/>
<path d="M185.934 37.6929C185.369 36.9167 185.169 35.7681 185.781 35.0287C186.239 34.4832 187.041 34.3102 187.743 34.4465C188.444 34.5829 189.499 35.228 189.947 35.7839C192.69 39.1876 191.403 42.5231 191.403 42.5231C191.403 42.5231 186.862 38.9568 185.934 37.6929Z" fill="#00AD9F"/>
<path d="M219.056 48.1662C218.856 47.5054 218.903 46.703 219.415 46.2415C219.736 45.9478 220.2 45.8429 220.633 45.8796C221.065 45.9111 221.482 46.0684 221.883 46.252C222.732 46.6401 223.397 47.3166 223.803 48.1557C224.837 50.2745 224.135 52.8968 224.135 52.8968C224.135 52.8968 219.562 49.8078 219.056 48.1662Z" fill="#00AD9F"/>
<path d="M208.639 55.9281C207.162 54.6379 204.905 54.255 203.112 55.0417C202.653 55.241 202.22 55.5242 201.93 55.9281C201.271 56.8354 201.503 58.1675 202.184 59.0538C202.869 59.9454 203.903 60.4856 204.926 60.9471C206.783 61.7862 209.662 61.9541 211.64 62.4575C211.635 62.4575 211.63 58.5451 208.639 55.9281Z" fill="#00AD9F"/>
<path d="M178.08 38.2803C179.309 42.2871 182.78 45.308 186.646 46.9443C190.512 48.5806 194.768 49.0107 198.961 49.2834C203.154 49.5561 207.395 49.6872 211.445 50.7833C215.396 51.8532 219.33 54.0821 221.023 57.7953C223.085 62.3161 221.261 67.7233 218.365 71.7668C215.469 75.8104 211.567 79.0672 208.766 83.1737C207.479 85.0618 206.403 87.2697 206.667 89.5354C207.015 92.5563 209.568 94.78 211.936 96.6942" stroke="#086356" stroke-miterlimit="10" stroke-linecap="round" stroke-linejoin="round"/>
<path d="M187.737 36.8066C190.517 39.8695 192.732 44.663 193.275 48.759" stroke="#086356" stroke-miterlimit="10" stroke-linecap="round" stroke-linejoin="round"/>
<path d="M178.402 48.6434C179.989 49.063 181.598 49.4878 183.244 49.493C184.884 49.4983 186.788 48.5909 187.969 47.4529" stroke="#086356" stroke-miterlimit="10" stroke-linecap="round" stroke-linejoin="round"/>
<path d="M221.772 48.4128C223.26 49.8446 224.167 51.8638 224.241 53.9249C224.32 55.986 223.17 58.4824 221.793 60.0243" stroke="#086356" stroke-miterlimit="10" stroke-linecap="round" stroke-linejoin="round"/>
<path d="M206.208 57.7693C209.177 60.4965 211.767 62.7044 215.069 65.0225C216.577 66.0819 219.573 67.435 220.897 67.0889" stroke="#086356" stroke-miterlimit="10" stroke-linecap="round" stroke-linejoin="round"/>
</g>
<defs>
<clipPath id="clip0">
<rect width="250" height="190" fill="white"/>
</clipPath>
</defs>
</svg>
